<!DOCTYPE svg PUBLIC "-//W3C//DTD SVG 1.1//EN" "http://www.w3.org/Graphics/SVG/1.1/DTD/svg11.dtd">
<svg xmlns="http://www.w3.org/2000/svg" xmlns:xlink="http://www.w3.org/1999/xlink" width="266px" height="266px" version="1.1"><defs/><g transform="translate(0.5,0.5)"><path d="M 192 52 L 202 52 Q 212 52 219.07 59.07 L 244.93 84.93 Q 252 92 252 102 L 252 122 Q 252 132 252 142 L 252 162 Q 252 172 244.93 179.07 L 219.07 204.93 Q 212 212 203.06 216.47 L 140.94 247.53 Q 132 252 122 252 L 102 252 Q 92 252 87.53 243.06 L 56.47 180.94 Q 52 172 44.93 164.93 L 19.07 139.07 Q 12 132 12 122 L 12 62 Q 12 52 19.07 44.93 L 44.93 19.07 Q 52 12 62 12 L 82 12 Q 92 12 100.94 16.47 L 163.06 47.53 Q 172 52 182 52 L 192 52" fill="none" stroke="#cccccc" stroke-width="25" stroke-miterlimit="10" pointer-events="none"/></g></svg>