<!DOCTYPE svg PUBLIC "-//W3C//DTD SVG 1.1//EN" "http://www.w3.org/Graphics/SVG/1.1/DTD/svg11.dtd">
<svg xmlns="http://www.w3.org/2000/svg" xmlns:xlink="http://www.w3.org/1999/xlink" width="226px" height="186px" version="1.1"><defs/><g transform="translate(0.5,0.5)"><path d="M 152 12 L 162 12 Q 172 12 179.07 19.07 L 204.93 44.93 Q 212 52 212 62 L 212 82 Q 212 92 204.93 99.07 L 179.07 124.93 Q 172 132 163.06 136.47 L 100.94 167.53 Q 92 172 83.06 167.53 L 20.94 136.47 Q 12 132 12 122 L 12 102 Q 12 92 19.07 84.93 L 44.93 59.07 Q 52 52 60.94 47.53 L 123.06 16.47 Q 132 12 142 12 L 152 12" fill="none" stroke="#cccccc" stroke-width="25" stroke-miterlimit="10" pointer-events="none"/></g></svg>