<!DOCTYPE svg PUBLIC "-//W3C//DTD SVG 1.1//EN" "http://www.w3.org/Graphics/SVG/1.1/DTD/svg11.dtd">
<svg xmlns="http://www.w3.org/2000/svg" xmlns:xlink="http://www.w3.org/1999/xlink" width="306px" height="266px" version="1.1"><defs/><g transform="translate(0.5,0.5)"><path d="M 252 52 L 284.93 84.93 Q 292 92 292 102 L 292 122 Q 292 132 284.93 139.07 L 259.07 164.93 Q 252 172 252 182 L 252 202 Q 252 212 242 212 L 222 212 Q 212 212 203.06 216.47 L 140.94 247.53 Q 132 252 122 252 L 102 252 Q 92 252 87.53 243.06 L 56.47 180.94 Q 52 172 44.93 164.93 L 19.07 139.07 Q 12 132 12 122 L 12 102 Q 12 92 19.07 84.93 L 44.93 59.07 Q 52 52 62 52 L 82 52 Q 92 52 99.07 44.93 L 124.93 19.07 Q 132 12 142 12 L 162 12 Q 172 12 182 12 L 202 12 Q 212 12 219.07 19.07 L 252 52" fill="none" stroke="#cccccc" stroke-width="25" stroke-miterlimit="10" pointer-events="none"/></g></svg>