<!DOCTYPE svg PUBLIC "-//W3C//DTD SVG 1.1//EN" "http://www.w3.org/Graphics/SVG/1.1/DTD/svg11.dtd">
<svg xmlns="http://www.w3.org/2000/svg" xmlns:xlink="http://www.w3.org/1999/xlink" width="146px" height="186px" version="1.1"><defs/><g transform="translate(0.5,0.5)"><path d="M 132 72 L 132 82 Q 132 92 132 102 L 132 122 Q 132 132 124.93 139.07 L 99.07 164.93 Q 92 172 82 172 L 62 172 Q 52 172 52 162 L 52 102 Q 52 92 44.93 84.93 L 19.07 59.07 Q 12 52 19.07 44.93 L 44.93 19.07 Q 52 12 62 12 L 82 12 Q 92 12 99.07 19.07 L 124.93 44.93 Q 132 52 132 62 L 132 72" fill="none" stroke="#cccccc" stroke-width="25" stroke-miterlimit="10" pointer-events="none"/></g></svg>