<!DOCTYPE svg PUBLIC "-//W3C//DTD SVG 1.1//EN" "http://www.w3.org/Graphics/SVG/1.1/DTD/svg11.dtd">
<svg xmlns="http://www.w3.org/2000/svg" xmlns:xlink="http://www.w3.org/1999/xlink" width="226px" height="266px" version="1.1"><defs/><g transform="translate(0.5,0.5)"><path d="M 212 132 L 212 162 Q 212 172 207.53 180.94 L 176.47 243.06 Q 172 252 162 252 L 102 252 Q 92 252 84.93 244.93 L 59.07 219.07 Q 52 212 52 202 L 52 182 Q 52 172 44.93 164.93 L 19.07 139.07 Q 12 132 16.47 123.06 L 47.53 60.94 Q 52 52 59.07 44.93 L 84.93 19.07 Q 92 12 100.94 16.47 L 163.06 47.53 Q 172 52 179.07 59.07 L 204.93 84.93 Q 212 92 212 102 L 212 132" fill="none" stroke="#cccccc" stroke-width="25" stroke-miterlimit="10" pointer-events="none"/></g></svg>