<!DOCTYPE svg PUBLIC "-//W3C//DTD SVG 1.1//EN" "http://www.w3.org/Graphics/SVG/1.1/DTD/svg11.dtd">
<svg xmlns="http://www.w3.org/2000/svg" xmlns:xlink="http://www.w3.org/1999/xlink" width="226px" height="226px" version="1.1"><defs/><g transform="translate(0.5,0.5)"><path d="M 152 52 L 162 52 Q 172 52 179.07 59.07 L 204.93 84.93 Q 212 92 212 102 L 212 122 Q 212 132 204.93 139.07 L 179.07 164.93 Q 172 172 172 182 L 172 202 Q 172 212 162 212 L 142 212 Q 132 212 123.06 207.53 L 60.94 176.47 Q 52 172 44.93 164.93 L 19.07 139.07 Q 12 132 12 122 L 12 62 Q 12 52 19.07 44.93 L 44.93 19.07 Q 52 12 62 12 L 82 12 Q 92 12 99.07 19.07 L 124.93 44.93 Q 132 52 142 52 L 152 52" fill="none" stroke="#cccccc" stroke-width="25" stroke-miterlimit="10" pointer-events="none"/></g></svg>