<!DOCTYPE svg PUBLIC "-//W3C//DTD SVG 1.1//EN" "http://www.w3.org/Graphics/SVG/1.1/DTD/svg11.dtd">
<svg xmlns="http://www.w3.org/2000/svg" xmlns:xlink="http://www.w3.org/1999/xlink" width="367px" height="367px" version="1.1"><defs/><g transform="translate(0.5,0.5)"><path d="M 343 183 L 343 213 Q 343 223 334.06 227.47 L 271.94 258.53 Q 263 263 258.53 271.94 L 227.47 334.06 Q 223 343 213 343 L 153 343 Q 143 343 138.53 334.06 L 107.47 271.94 Q 103 263 94.06 258.53 L 31.94 227.47 Q 23 223 23 213 L 23 153 Q 23 143 31.94 138.53 L 94.06 107.47 Q 103 103 107.47 94.06 L 138.53 31.94 Q 143 23 153 23 L 213 23 Q 223 23 227.47 31.94 L 258.53 94.06 Q 263 103 271.94 107.47 L 334.06 138.53 Q 343 143 343 153 L 343 183" fill="none" stroke="#e1f5fe" stroke-width="14" stroke-miterlimit="10" pointer-events="none"/><path d="M 223 143 L 255.93 175.93 Q 263 183 255.93 190.07 L 190.07 255.93 Q 183 263 175.93 255.93 L 110.07 190.07 Q 103 183 110.07 175.93 L 175.93 110.07 Q 183 103 190.07 110.07 L 223 143" fill="none" stroke="#e1f5fe" stroke-width="14" stroke-miterlimit="10" pointer-events="none"/><path d="M 343 183 L 343 213 Q 343 223 334.06 227.47 L 271.94 258.53 Q 263 263 258.53 271.94 L 227.47 334.06 Q 223 343 213 343 L 153 343 Q 143 343 138.53 334.06 L 107.47 271.94 Q 103 263 94.06 258.53 L 31.94 227.47 Q 23 223 23 213 L 23 153 Q 23 143 31.94 138.53 L 94.06 107.47 Q 103 103 107.47 94.06 L 138.53 31.94 Q 143 23 153 23 L 213 23 Q 223 23 227.47 31.94 L 258.53 94.06 Q 263 103 271.94 107.47 L 334.06 138.53 Q 343 143 343 153 L 343 183" fill="none" stroke="#e1f5fe" stroke-opacity="0.1" stroke-width="18" stroke-miterlimit="10" pointer-events="none"/><path d="M 223 143 L 255.93 175.93 Q 263 183 255.93 190.07 L 190.07 255.93 Q 183 263 175.93 255.93 L 110.07 190.07 Q 103 183 110.07 175.93 L 175.93 110.07 Q 183 103 190.07 110.07 L 223 143" fill="none" stroke="#e1f5fe" stroke-opacity="0.1" stroke-width="18" stroke-miterlimit="10" pointer-events="none"/><path d="M 343 183 L 343 213 Q 343 223 334.06 227.47 L 271.94 258.53 Q 263 263 258.53 271.94 L 227.47 334.06 Q 223 343 213 343 L 153 343 Q 143 343 138.53 334.06 L 107.47 271.94 Q 103 263 94.06 258.53 L 31.94 227.47 Q 23 223 23 213 L 23 153 Q 23 143 31.94 138.53 L 94.06 107.47 Q 103 103 107.47 94.06 L 138.53 31.94 Q 143 23 153 23 L 213 23 Q 223 23 227.47 31.94 L 258.53 94.06 Q 263 103 271.94 107.47 L 334.06 138.53 Q 343 143 343 153 L 343 183" fill="none" stroke="#e1f5fe" stroke-opacity="0.1" stroke-width="22" stroke-miterlimit="10" pointer-events="none"/><path d="M 223 143 L 255.93 175.93 Q 263 183 255.93 190.07 L 190.07 255.93 Q 183 263 175.93 255.93 L 110.07 190.07 Q 103 183 110.07 175.93 L 175.93 110.07 Q 183 103 190.07 110.07 L 223 143" fill="none" stroke="#e1f5fe" stroke-opacity="0.1" stroke-width="22" stroke-miterlimit="10" pointer-events="none"/><path d="M 343 183 L 343 213 Q 343 223 334.06 227.47 L 271.94 258.53 Q 263 263 258.53 271.94 L 227.47 334.06 Q 223 343 213 343 L 153 343 Q 143 343 138.53 334.06 L 107.47 271.94 Q 103 263 94.06 258.53 L 31.94 227.47 Q 23 223 23 213 L 23 153 Q 23 143 31.94 138.53 L 94.06 107.47 Q 103 103 107.47 94.06 L 138.53 31.94 Q 143 23 153 23 L 213 23 Q 223 23 227.47 31.94 L 258.53 94.06 Q 263 103 271.94 107.47 L 334.06 138.53 Q 343 143 343 153 L 343 183" fill="none" stroke="#e1f5fe" stroke-opacity="0.1" stroke-width="26" stroke-miterlimit="10" pointer-events="none"/><path d="M 223 143 L 255.93 175.93 Q 263 183 255.93 190.07 L 190.07 255.93 Q 183 263 175.93 255.93 L 110.07 190.07 Q 103 183 110.07 175.93 L 175.93 110.07 Q 183 103 190.07 110.07 L 223 143" fill="none" stroke="#e1f5fe" stroke-opacity="0.1" stroke-width="26" stroke-miterlimit="10" pointer-events="none"/><path d="M 343 183 L 343 213 Q 343 223 334.06 227.47 L 271.94 258.53 Q 263 263 258.53 271.94 L 227.47 334.06 Q 223 343 213 343 L 153 343 Q 143 343 138.53 334.06 L 107.47 271.94 Q 103 263 94.06 258.53 L 31.94 227.47 Q 23 223 23 213 L 23 153 Q 23 143 31.94 138.53 L 94.06 107.47 Q 103 103 107.47 94.06 L 138.53 31.94 Q 143 23 153 23 L 213 23 Q 223 23 227.47 31.94 L 258.53 94.06 Q 263 103 271.94 107.47 L 334.06 138.53 Q 343 143 343 153 L 343 183" fill="none" stroke="#e1f5fe" stroke-opacity="0.1" stroke-width="30" stroke-miterlimit="10" pointer-events="none"/><path d="M 223 143 L 255.93 175.93 Q 263 183 255.93 190.07 L 190.07 255.93 Q 183 263 175.93 255.93 L 110.07 190.07 Q 103 183 110.07 175.93 L 175.93 110.07 Q 183 103 190.07 110.07 L 223 143" fill="none" stroke="#e1f5fe" stroke-opacity="0.1" stroke-width="30" stroke-miterlimit="10" pointer-events="none"/><path d="M 343 183 L 343 213 Q 343 223 334.06 227.47 L 271.94 258.53 Q 263 263 258.53 271.94 L 227.47 334.06 Q 223 343 213 343 L 153 343 Q 143 343 138.53 334.06 L 107.47 271.94 Q 103 263 94.06 258.53 L 31.94 227.47 Q 23 223 23 213 L 23 153 Q 23 143 31.94 138.53 L 94.06 107.47 Q 103 103 107.47 94.06 L 138.53 31.94 Q 143 23 153 23 L 213 23 Q 223 23 227.47 31.94 L 258.53 94.06 Q 263 103 271.94 107.47 L 334.06 138.53 Q 343 143 343 153 L 343 183" fill="none" stroke="#e1f5fe" stroke-opacity="0.1" stroke-width="34" stroke-miterlimit="10" pointer-events="none"/><path d="M 223 143 L 255.93 175.93 Q 263 183 255.93 190.07 L 190.07 255.93 Q 183 263 175.93 255.93 L 110.07 190.07 Q 103 183 110.07 175.93 L 175.93 110.07 Q 183 103 190.07 110.07 L 223 143" fill="none" stroke="#e1f5fe" stroke-opacity="0.1" stroke-width="34" stroke-miterlimit="10" pointer-events="none"/><path d="M 343 183 L 343 213 Q 343 223 334.06 227.47 L 271.94 258.53 Q 263 263 258.53 271.94 L 227.47 334.06 Q 223 343 213 343 L 153 343 Q 143 343 138.53 334.06 L 107.47 271.94 Q 103 263 94.06 258.53 L 31.94 227.47 Q 23 223 23 213 L 23 153 Q 23 143 31.94 138.53 L 94.06 107.47 Q 103 103 107.47 94.06 L 138.53 31.94 Q 143 23 153 23 L 213 23 Q 223 23 227.47 31.94 L 258.53 94.06 Q 263 103 271.94 107.47 L 334.06 138.53 Q 343 143 343 153 L 343 183" fill="none" stroke="#e1f5fe" stroke-opacity="0.1" stroke-width="38" stroke-miterlimit="10" pointer-events="none"/><path d="M 223 143 L 255.93 175.93 Q 263 183 255.93 190.07 L 190.07 255.93 Q 183 263 175.93 255.93 L 110.07 190.07 Q 103 183 110.07 175.93 L 175.93 110.07 Q 183 103 190.07 110.07 L 223 143" fill="none" stroke="#e1f5fe" stroke-opacity="0.1" stroke-width="38" stroke-miterlimit="10" pointer-events="none"/><path d="M 343 183 L 343 213 Q 343 223 334.06 227.47 L 271.94 258.53 Q 263 263 258.53 271.94 L 227.47 334.06 Q 223 343 213 343 L 153 343 Q 143 343 138.53 334.06 L 107.47 271.94 Q 103 263 94.06 258.53 L 31.94 227.47 Q 23 223 23 213 L 23 153 Q 23 143 31.94 138.53 L 94.06 107.47 Q 103 103 107.47 94.06 L 138.53 31.94 Q 143 23 153 23 L 213 23 Q 223 23 227.47 31.94 L 258.53 94.06 Q 263 103 271.94 107.47 L 334.06 138.53 Q 343 143 343 153 L 343 183" fill="none" stroke="#e1f5fe" stroke-opacity="0.1" stroke-width="42" stroke-miterlimit="10" pointer-events="none"/><path d="M 223 143 L 255.93 175.93 Q 263 183 255.93 190.07 L 190.07 255.93 Q 183 263 175.93 255.93 L 110.07 190.07 Q 103 183 110.07 175.93 L 175.93 110.07 Q 183 103 190.07 110.07 L 223 143" fill="none" stroke="#e1f5fe" stroke-opacity="0.1" stroke-width="42" stroke-miterlimit="10" pointer-events="none"/><path d="M 343 183 L 343 213 Q 343 223 334.06 227.47 L 271.94 258.53 Q 263 263 258.53 271.94 L 227.47 334.06 Q 223 343 213 343 L 153 343 Q 143 343 138.53 334.06 L 107.47 271.94 Q 103 263 94.06 258.53 L 31.94 227.47 Q 23 223 23 213 L 23 153 Q 23 143 31.94 138.53 L 94.06 107.47 Q 103 103 107.47 94.06 L 138.53 31.94 Q 143 23 153 23 L 213 23 Q 223 23 227.47 31.94 L 258.53 94.06 Q 263 103 271.94 107.47 L 334.06 138.53 Q 343 143 343 153 L 343 183" fill="none" stroke="#e1f5fe" stroke-opacity="0.1" stroke-width="46" stroke-miterlimit="10" pointer-events="none"/><path d="M 223 143 L 255.93 175.93 Q 263 183 255.93 190.07 L 190.07 255.93 Q 183 263 175.93 255.93 L 110.07 190.07 Q 103 183 110.07 175.93 L 175.93 110.07 Q 183 103 190.07 110.07 L 223 143" fill="none" stroke="#e1f5fe" stroke-opacity="0.1" stroke-width="46" stroke-miterlimit="10" pointer-events="none"/></g></svg>